<?xml version="1.0" standalone="no"?>
<!DOCTYPE svg PUBLIC "-//W3C//DTD SVG 20010904//EN"
 "http://www.w3.org/TR/2001/REC-SVG-20010904/DTD/svg10.dtd">
<svg version="1.0" xmlns="http://www.w3.org/2000/svg"
 width="800.000000pt" height="203.000000pt" viewBox="0 0 800.000000 203.000000"
 preserveAspectRatio="xMidYMid meet">

<g transform="translate(0.000000,203.000000) scale(0.100000,-0.100000)"
fill="#000000" stroke="none">
<path d="M310 1930 c-20 -20 -20 -33 -20 -916 0 -598 3 -902 10 -915 7 -13 21
-19 44 -19 32 0 47 17 395 455 267 338 361 463 361 482 0 18 -25 57 -78 122
-43 53 -199 247 -346 431 -148 184 -279 345 -293 358 -30 27 -47 28 -73 2z"/>
<path d="M1038 1719 c-44 -25 -26 -55 232 -373 156 -192 250 -316 250 -329 0
-13 -99 -146 -250 -337 -252 -317 -270 -346 -238 -378 9 -9 124 -12 455 -12
427 0 443 1 453 19 6 13 10 251 10 704 0 650 -1 685 -18 700 -17 15 -62 17
-448 17 -273 0 -435 -4 -446 -11z"/>
</g>
</svg>
