<?xml version="1.0" standalone="no"?>
<!DOCTYPE svg PUBLIC "-//W3C//DTD SVG 20010904//EN"
 "http://www.w3.org/TR/2001/REC-SVG-20010904/DTD/svg10.dtd">
<svg version="1.0" xmlns="http://www.w3.org/2000/svg"
 width="256.000000pt" height="256.000000pt" viewBox="0 0 256.000000 256.000000"
 preserveAspectRatio="xMidYMid meet">
<metadata>
Created by potrace 1.14, written by Peter Selinger 2001-2017
</metadata>
<g transform="translate(0.000000,256.000000) scale(0.100000,-0.100000)"
fill="#000000" stroke="none">
<path d="M191 2505 c-19 -26 -20 -41 -20 -1229 l0 -1204 24 -22 c16 -15 33
-20 56 -18 35 3 41 10 230 249 36 46 154 194 260 329 476 599 519 655 519 676
0 26 -27 67 -125 186 -42 51 -82 100 -89 108 -6 8 -97 121 -201 250 -104 129
-263 327 -354 440 -90 113 -176 217 -189 233 -34 36 -83 37 -111 2z"/>
<path d="M1188 2237 c-33 -12 -49 -39 -44 -73 4 -27 216 -299 474 -609 9 -11
44 -54 77 -95 33 -41 63 -77 66 -80 3 -3 17 -22 32 -44 33 -49 29 -60 -71
-186 -42 -53 -160 -203 -262 -331 -101 -129 -187 -236 -190 -239 -4 -3 -36
-44 -73 -92 -61 -82 -65 -90 -56 -117 20 -58 -5 -56 613 -57 350 0 579 3 593
9 12 5 26 21 32 36 7 17 10 336 10 929 l-1 903 -23 27 -23 27 -567 0 c-311 0
-576 -3 -587 -8z"/>
</g>
</svg>
